<svg viewBox="0 0 64 64" xmlns="http://www.w3.org/2000/svg" xmlns:xlink="http://www.w3.org/1999/xlink" width="64.000000" height="64.000000" fill="none">
	<rect id="diagram 1" width="64.000000" height="64.000000" x="0.000000" y="0.000000" fill="rgb(255,255,255)" fill-opacity="0" />
	<path id="Vector" d="M29.8511 29.9292L31.9833 29.9292L31.9833 39.5242L29.8511 39.5242L29.8511 29.9292Z" fill="rgb(77,90,229)" fill-rule="nonzero" />
	<path id="Vector" d="M38.3799 34.1937L40.5121 34.1937L40.5121 39.5242L38.3799 39.5242L38.3799 34.1937Z" fill="rgb(77,90,229)" fill-rule="nonzero" />
	<path id="Vector" d="M21.3221 37.392L23.4544 37.392L23.4544 39.5242L21.3221 39.5242L21.3221 37.392Z" fill="rgb(77,90,229)" fill-rule="nonzero" />
	<path id="Vector" d="M14.9255 36.3259L17.0578 36.3259L17.0578 39.5242L14.9255 39.5242L14.9255 36.3259Z" fill="rgb(77,90,229)" fill-rule="nonzero" />
	<path id="Vector" d="M3.19833 56.5819L54.3715 56.5819C56.1378 56.5819 57.5699 55.1499 57.5699 53.3836L57.5699 49.1192C57.5699 47.3529 56.1378 45.9208 54.3715 45.9208L53.3054 45.9208L53.3054 19.3342L59.3611 13.5976C60.7666 14.2905 62.4678 13.8699 63.3876 12.6003C64.308 11.3311 64.1789 9.5836 63.0826 8.46336C61.9863 7.34311 60.2424 7.17601 58.953 8.06773C57.6641 8.95997 57.206 10.6513 57.8681 12.0719L53.3054 16.3972L53.3054 13.9376C53.3054 12.1713 51.8734 10.7393 50.1071 10.7393L7.46276 10.7393C5.6965 10.7393 4.26443 12.1713 4.26443 13.9376L4.26443 45.9208L3.19833 45.9208C1.43206 45.9208 0 47.3529 0 49.1192L0 53.3836C0 55.1499 1.43206 56.5819 3.19833 56.5819ZM60.7682 9.67314C61.3569 9.67314 61.8343 10.1505 61.8343 10.7393C61.8343 11.328 61.3569 11.8054 60.7682 11.8054C60.1794 11.8054 59.7021 11.328 59.7021 10.7393C59.7021 10.1505 60.1794 9.67314 60.7682 9.67314ZM6.39665 13.9376C6.39665 13.3488 6.874 12.8715 7.46276 12.8715L50.1071 12.8715C50.6958 12.8715 51.1732 13.3488 51.1732 13.9376L51.1732 18.4149L49.041 20.4409L49.041 16.0698C49.041 15.481 48.5636 15.0037 47.9749 15.0037L9.59498 15.0037C9.00622 15.0037 8.52887 15.481 8.52887 16.0698L8.52887 42.7225C8.52887 43.3113 9.00622 43.7886 9.59498 43.7886L47.9749 43.7886C48.5636 43.7886 49.041 43.3113 49.041 42.7225L49.041 23.3738L51.1732 21.3535L51.1732 45.9208L6.39665 45.9208L6.39665 13.9376ZM15.9916 27.797C14.5492 27.7928 13.2826 28.7538 12.899 30.1442C12.5153 31.5346 13.1093 33.0094 14.3498 33.7454C15.5898 34.4815 17.1697 34.2967 18.2061 33.2936L21.912 35.153C22.3425 35.3685 22.8646 35.2676 23.1847 34.9078L31.0624 26.0453L38.8062 31.848C39.2216 32.1593 39.8016 32.126 40.1784 31.7694L46.9088 25.3941L46.9088 41.6564L10.6611 41.6564L10.6611 17.1359L46.9088 17.1359L46.9088 22.4566L39.3658 29.5997L31.5569 23.7455C31.1134 23.4133 30.4892 23.4758 30.1207 23.8897L22.1348 32.8751L19.1493 31.3821C19.1712 31.254 19.1847 31.1249 19.19 30.9953C19.19 29.229 17.7579 27.797 15.9916 27.797ZM17.0577 30.9953C17.0577 31.5841 16.5804 32.0614 15.9916 32.0614C15.4029 32.0614 14.9255 31.5841 14.9255 30.9953C14.9255 30.4066 15.4029 29.9292 15.9916 29.9292C16.5804 29.9292 17.0577 30.4066 17.0577 30.9953ZM23.4544 48.0531L34.1155 48.0531L34.1155 49.1192C34.1155 49.7079 33.6381 50.1853 33.0494 50.1853L24.5205 50.1853C23.9317 50.1853 23.4544 49.7079 23.4544 49.1192L23.4544 48.0531ZM2.13222 49.1192C2.13222 48.5304 2.60957 48.0531 3.19833 48.0531L21.3222 48.0531L21.3222 49.1192C21.3222 50.8854 22.7542 52.3175 24.5205 52.3175L33.0494 52.3175C34.8156 52.3175 36.2477 50.8854 36.2477 49.1192L36.2477 48.0531L54.3715 48.0531C54.9603 48.0531 55.4376 48.5304 55.4376 49.1192L55.4376 53.3836C55.4376 53.9723 54.9603 54.4497 54.3715 54.4497L3.19833 54.4497C2.60957 54.4497 2.13222 53.9723 2.13222 53.3836L2.13222 49.1192Z" fill="rgb(46,47,66)" fill-rule="nonzero" />
</svg>
