<svg viewBox="0 0 24 24" xmlns="http://www.w3.org/2000/svg" xmlns:xlink="http://www.w3.org/1999/xlink" width="24.000000" height="24.000000" fill="none">
	<rect id="linkedin 1" width="24.000000" height="24.000000" x="-0.000031" y="0.000000" fill="rgb(255,255,255)" fill-opacity="0" />
	<path id="Vector" d="M23.994 24.0002L23.994 23.9992L24 23.9992L24 15.1972C24 10.8912 23.073 7.57422 18.039 7.57422C15.619 7.57422 13.995 8.90222 13.332 10.1612L13.262 10.1612L13.262 7.97622L8.48898 7.97622L8.48898 23.9992L13.459 23.9992L13.459 16.0652C13.459 13.9762 13.855 11.9562 16.442 11.9562C18.991 11.9562 19.029 14.3402 19.029 16.1992L19.029 24.0002L23.994 24.0002Z" fill="rgb(244,244,253)" fill-rule="nonzero" />
	<path id="Vector" d="M0.396027 7.97705L5.37203 7.97705L5.37203 24L0.396027 24L0.396027 7.97705Z" fill="rgb(244,244,253)" fill-rule="nonzero" />
	<path id="Vector" d="M2.88197 0C1.29097 0 -3.05176e-05 1.291 -3.05176e-05 2.882C-3.05176e-05 4.473 1.29097 5.791 2.88197 5.791C4.47297 5.791 5.76397 4.473 5.76397 2.882C5.76297 1.291 4.47197 4.44089e-16 2.88197 4.44089e-16L2.88197 0Z" fill="rgb(244,244,253)" fill-rule="nonzero" />
</svg>
